<svg width="44" height="44" viewBox="0 0 40 40" fill="none" xmlns="http://www.w3.org/2000/svg">
    <rect width="40" height="40" rx="10" fill="#FF4500"></rect>
    <g clip-path="url(#clip0_920_2748)">
        <path
            d="M23.5506 25.753C22.6543 26.6879 21.2111 26.8681 19.9992 26.8681C18.7887 26.8681 17.3441 26.6879 16.4492 25.753M26.2909 10.9531L21.7527 9.83798L19.9907 15.4538L21.7531 9.83798M29.9314 11.3365C29.9314 11.8319 29.743 12.307 29.4075 12.6573C29.072 13.0076 28.617 13.2044 28.1425 13.2044C27.6681 13.2044 27.2131 13.0076 26.8776 12.6573C26.5421 12.307 26.3536 11.8319 26.3536 11.3365C26.3641 10.8483 26.5572 10.3839 26.8915 10.0425C27.2259 9.70111 27.6749 9.50996 28.1425 9.50996C28.6102 9.50996 29.0592 9.70111 29.3936 10.0425C29.7279 10.3839 29.921 10.8483 29.9314 11.3365ZM30.2278 22.528C30.2278 26.3958 25.6264 29.5319 19.9508 29.5319C14.2747 29.5319 9.67374 26.3962 9.67374 22.528C9.67374 18.6601 14.2747 15.5241 19.9508 15.5241C25.6264 15.5241 30.2278 18.6597 30.2278 22.528ZM9.80735 21.4395C9.40367 21.2545 9.06035 20.9507 8.81933 20.5653C8.57832 20.1799 8.45005 19.7295 8.4502 19.2692C8.44991 18.783 8.5929 18.3085 8.85976 17.9101C9.12662 17.5117 9.50442 17.2087 9.94188 17.0422C10.3793 16.8757 10.8553 16.8538 11.3051 16.9794C11.7549 17.105 12.1568 17.3721 12.4562 17.7445M27.5063 17.7927C27.7996 17.4086 28.2 17.1292 28.6521 16.9932C29.1041 16.8572 29.5855 16.8712 30.0296 17.0334C30.4736 17.1955 30.8584 17.4978 31.1308 17.8984C31.4031 18.2989 31.5494 18.778 31.5495 19.2692C31.5495 19.747 31.4112 20.2136 31.1528 20.6079C30.8944 21.0022 30.5279 21.3058 30.1014 21.4788"
            fill="white"></path>
        <path
            d="M19.9509 30.0006C14.0368 30.0006 9.22554 26.6486 9.22554 22.5285C9.22554 22.2439 9.2484 21.9621 9.29324 21.6854C8.89865 21.431 8.57292 21.0754 8.347 20.6526C8.12108 20.2297 8.00247 19.7535 8.00244 19.2693C8.00327 18.5171 8.28978 17.796 8.79912 17.2641C9.30846 16.7321 9.99905 16.4329 10.7194 16.4319C11.3888 16.4319 12.0268 16.6875 12.5204 17.1444C14.3806 15.8977 16.8829 15.1131 19.6434 15.0588L21.4556 9.28378L21.851 9.38115L21.8604 9.38349L26.0843 10.4218C26.2566 10.0006 26.5436 9.64135 26.9095 9.38871C27.2755 9.13607 27.7044 9.00111 28.1431 9.00055C28.7364 9.00129 29.3051 9.24771 29.7245 9.68575C30.1439 10.1238 30.3798 10.7176 30.3804 11.3371C30.3797 11.9564 30.1437 12.5501 29.7243 12.9881C29.3049 13.426 28.7363 13.6724 28.1431 13.6731C27.5504 13.6725 26.9821 13.4265 26.5628 12.9892C26.1434 12.5518 25.9072 11.9587 25.9059 11.3399L22.0519 10.3923L20.5844 15.0691C23.2445 15.1772 25.6467 15.9642 27.4401 17.1837C27.9411 16.6993 28.5991 16.4309 29.2819 16.4323C30.0024 16.4332 30.6931 16.7324 31.2025 17.2644C31.712 17.7963 31.9985 18.5175 31.9994 19.2698C32.0016 19.773 31.8746 20.2676 31.6318 20.7023C31.389 21.137 31.0391 21.4958 30.6185 21.7416C30.6575 22.0004 30.6777 22.2626 30.6777 22.5285C30.6768 26.6486 25.8651 30.0006 19.9509 30.0006ZM10.2119 21.6428C10.1523 21.9339 10.1222 22.2308 10.1222 22.5285C10.1222 26.1327 14.5313 29.0643 19.9509 29.0643C25.3706 29.0643 29.7796 26.1323 29.7796 22.5285C29.7796 22.242 29.7518 21.9597 29.6976 21.6826C29.6683 21.619 29.6531 21.5494 29.6532 21.4789C29.3532 20.2491 28.535 19.1326 27.3531 18.2328C27.2779 18.2043 27.2115 18.1551 27.1608 18.0905C25.3643 16.8008 22.7975 15.9923 19.9509 15.9923C17.1331 15.9923 14.5882 16.7848 12.7944 18.0526C12.7455 18.1107 12.6838 18.1555 12.6146 18.1832C11.4072 19.0834 10.5679 20.2074 10.2563 21.448C10.2553 21.51 10.2425 21.5711 10.2186 21.6278C10.2164 21.6329 10.2146 21.6381 10.2119 21.6428ZM28.1893 17.7483C29.229 18.6167 29.9921 19.6508 30.3822 20.7856C30.6068 20.6087 30.7889 20.3796 30.9138 20.1163C31.0387 19.8531 31.1031 19.5631 31.1018 19.2693C31.1013 18.7652 30.9093 18.282 30.568 17.9255C30.2266 17.5691 29.7638 17.3687 29.281 17.3682C28.8872 17.3676 28.504 17.501 28.1893 17.7483ZM10.7194 17.3682C10.2368 17.3688 9.77404 17.5693 9.43279 17.9257C9.09153 18.2821 8.89961 18.7653 8.89914 19.2693C8.89914 19.8371 9.14125 20.3647 9.54297 20.7205C9.94603 19.5946 10.7167 18.5689 11.7605 17.709C11.4549 17.4871 11.0916 17.3681 10.7194 17.3682ZM28.1427 9.93637C27.4038 9.93637 26.8021 10.5646 26.8021 11.3366C26.8021 12.1086 27.4038 12.7363 28.1427 12.7363C28.8816 12.7363 29.4832 12.1086 29.4832 11.3366C29.4832 10.5646 28.882 9.93637 28.1427 9.93637ZM19.9998 27.3359C18.2042 27.3359 16.9389 26.9262 16.1323 26.0836C16.0483 25.9957 16.0011 25.8766 16.0011 25.7524C16.0011 25.6283 16.0484 25.5092 16.1326 25.4214C16.2167 25.3336 16.3308 25.2843 16.4497 25.2844C16.5686 25.2844 16.6827 25.3338 16.7668 25.4216C17.3967 26.0794 18.4539 26.3996 19.9998 26.3996C21.5452 26.3996 22.6033 26.0794 23.2342 25.4216C23.2758 25.3782 23.3252 25.3438 23.3796 25.3203C23.434 25.2968 23.4922 25.2847 23.5511 25.2847C23.6099 25.2847 23.6682 25.2969 23.7226 25.3204C23.7769 25.3439 23.8263 25.3784 23.8679 25.4219C23.9095 25.4653 23.9425 25.5169 23.965 25.5737C23.9875 25.6305 23.9991 25.6913 23.9991 25.7528C23.999 25.8142 23.9874 25.8751 23.9649 25.9318C23.9423 25.9886 23.9093 26.0402 23.8677 26.0836C23.0602 26.9262 21.7954 27.3359 19.9998 27.3359Z"
            fill="black"></path>
        <path
            d="M23.6349 19.4143C22.7212 19.4143 21.954 20.2135 21.954 21.1675C21.954 22.1211 22.7212 22.8941 23.6349 22.8941C24.5486 22.8941 25.2884 22.1211 25.2884 21.1675C25.2884 20.2135 24.5482 19.4143 23.6349 19.4143ZM16.3905 19.4143C15.4777 19.4143 14.7114 20.2144 14.7114 21.1675C14.7114 22.1207 15.4772 22.8941 16.3905 22.8941C17.3038 22.8941 18.044 22.1207 18.044 21.1675C18.044 20.2144 17.3033 19.4143 16.3905 19.4143Z"
            fill="#FF4500"></path>
    </g>
    <defs>
        <clipPath id="clip0_920_2748">
            <rect width="24" height="21" fill="white" transform="translate(8 9)"></rect>
        </clipPath>
    </defs>
</svg>