<svg width="44" height="44" viewBox="0 0 40 40" fill="none" xmlns="http://www.w3.org/2000/svg">
    <rect width="40" height="40" rx="10" fill="white"></rect>
    <path
        d="M32 20C32 26.6271 26.6271 32 20 32C13.3721 32 8 26.6271 8 20C8 13.3721 13.3725 8 20 8C26.6271 8 32 13.3725 32 20Z"
        fill="#ED6B5C"></path>
    <path
        d="M21.5995 20.0001H18.1998V16.4001H21.5995C21.8359 16.4001 22.07 16.4467 22.2884 16.5372C22.5067 16.6276 22.7052 16.7602 22.8723 16.9273C23.0395 17.0945 23.1721 17.2929 23.2625 17.5113C23.353 17.7297 23.3995 17.9638 23.3995 18.2001C23.3995 18.4365 23.353 18.6706 23.2625 18.889C23.1721 19.1074 23.0395 19.3058 22.8723 19.4729C22.7052 19.6401 22.5067 19.7727 22.2884 19.8631C22.07 19.9536 21.8359 20.0001 21.5995 20.0001ZM21.5995 14.0001H15.7998V26.0001H18.1998V22.4001H21.5995C23.9191 22.4001 25.7995 20.5197 25.7995 18.2001C25.7995 15.8806 23.9191 14.0001 21.5995 14.0001Z"
        fill="white"></path>
</svg>